<?xml version="1.0" encoding="utf-8"?>
<!-- Generator: Adobe Illustrator 23.0.2, SVG Export Plug-In . SVG Version: 6.00 Build 0)  -->
<svg version="1.1" id="Layer_1" xmlns="http://www.w3.org/2000/svg" xmlns:xlink="http://www.w3.org/1999/xlink" x="0px" y="0px"
	 viewBox="0 0 57.5 364.8" style="enable-background:new 0 0 57.5 364.8;" xml:space="preserve">
<style type="text/css">
	.st0{fill:none;stroke:#BE202E;stroke-width:0.576;stroke-miterlimit:10;}
</style>
<path class="st0" d="M0,0l57.5,0v364.8H0L0,0L0,0z M25.6,356c0-2.3-1.9-4.2-4.2-4.2s-4.2,1.9-4.2,4.2s1.9,4.2,4.2,4.2
	S25.6,358.4,25.6,356z M25.6,8.8c0-2.3-1.9-4.2-4.2-4.2s-4.2,1.9-4.2,4.2S19,13,21.3,13S25.6,11.1,25.6,8.8z M37.1,308.4
	c0-4.6-3.8-8.4-8.4-8.4s-8.4,3.8-8.4,8.4s3.8,8.4,8.4,8.4S37.1,313,37.1,308.4z M37.1,272.4c0-4.6-3.8-8.4-8.4-8.4s-8.4,3.8-8.4,8.4
	s3.8,8.4,8.4,8.4S37.1,277,37.1,272.4z M37.1,236.4c0-4.6-3.8-8.4-8.4-8.4s-8.4,3.8-8.4,8.4c0,4.6,3.8,8.4,8.4,8.4
	S37.1,241,37.1,236.4L37.1,236.4z M37.1,200.4c0-4.6-3.8-8.4-8.4-8.4s-8.4,3.8-8.4,8.4s3.8,8.4,8.4,8.4S37.1,205,37.1,200.4z
	 M37.1,164.4c0-4.6-3.8-8.4-8.4-8.4s-8.4,3.8-8.4,8.4s3.8,8.4,8.4,8.4S37.1,169,37.1,164.4z M37.1,128.4c0-4.6-3.8-8.4-8.4-8.4
	s-8.4,3.8-8.4,8.4s3.8,8.4,8.4,8.4S37.1,133,37.1,128.4z M37.1,92.4c0-4.6-3.8-8.4-8.4-8.4s-8.4,3.8-8.4,8.4s3.8,8.4,8.4,8.4
	S37.1,97,37.1,92.4z M37.1,56.4c0-4.6-3.8-8.4-8.4-8.4s-8.4,3.8-8.4,8.4s3.8,8.4,8.4,8.4S37.1,61,37.1,56.4z"/>
</svg>
